<?xml version="1.0" encoding="UTF-8" standalone="no"?>
<!DOCTYPE svg PUBLIC "-//W3C//DTD SVG 1.1//EN" "http://www.w3.org/Graphics/SVG/1.1/DTD/svg11.dtd">
<svg width="100%" height="100%" viewBox="0 0 800 800" version="1.1" xmlns="http://www.w3.org/2000/svg" xmlns:xlink="http://www.w3.org/1999/xlink" xml:space="preserve" xmlns:serif="http://www.serif.com/" style="fill-rule:evenodd;clip-rule:evenodd;stroke-linejoin:round;stroke-miterlimit:2;">
    <path d="M800,800L800,773.584L673.503,639.551C673.503,639.551 651.473,484.641 524.508,284.656C356.887,20.632 170.196,-15.461 15.767,10.763C15.767,10.763 132.9,14.453 649.8,637.413C649.8,637.413 588.783,653.602 595.671,606.395C582.343,632.532 529.193,607.464 512.271,593.707C431.268,527.856 169.613,295.338 169.613,295.338C169.613,295.338 179.52,232.401 234.881,208.509C234.881,208.509 138.145,211.422 112.504,253.963C112.504,253.963 -0.55,141.492 22.76,37.18C22.76,37.18 -28.522,153.73 122.411,296.504C122.411,296.504 110.756,252.798 184.182,229.488C184.182,229.488 141.059,259.791 150.383,318.648C150.383,318.648 437.809,561.856 497.119,611.189C518.21,628.732 534.9,640.408 550.438,648.021C556.684,651.081 577.313,630.758 583.398,632.622C592.031,635.267 570.993,658.971 580.329,659.779C596.434,661.174 629.631,660.915 652.714,659.558L800,800Z"/>
</svg>
