<?xml version="1.0" standalone="no"?>
<!DOCTYPE svg PUBLIC "-//W3C//DTD SVG 20010904//EN"
 "http://www.w3.org/TR/2001/REC-SVG-20010904/DTD/svg10.dtd">
<svg version="1.0" xmlns="http://www.w3.org/2000/svg"
 width="128.000000pt" height="128.000000pt" viewBox="0 0 128.000000 128.000000"
 preserveAspectRatio="xMidYMid meet">
<metadata>
Created by potrace 1.10, written by Peter Selinger 2001-2011
</metadata>
<g transform="translate(0.000000,128.000000) scale(0.100000,-0.100000)"
fill="#000000" stroke="none">
<path d="M409 1255 c5 -11 117 -126 247 -255 130 -129 249 -250 265 -268 l29
-33 0 -155 0 -156 143 -145 c78 -79 151 -149 162 -155 11 -5 -51 61 -137 149
l-158 158 0 160 0 160 -281 280 c-155 154 -276 271 -270 260z"/>
<path d="M160 1047 c80 -81 146 -147 148 -147 10 0 -65 84 -135 151 -149 144
-157 142 -13 -4z"/>
<path d="M45 840 l39 -40 160 0 160 0 35 -32 c24 -22 29 -25 16 -8 -38 47 -44
48 -213 52 -142 3 -165 5 -173 20 -5 10 -10 21 -9 25 0 5 55 10 122 13 l123 6
-150 2 -149 2 39 -40z"/>
<path d="M365 520 l201 -200 159 0 160 0 154 -152 c85 -84 140 -135 122 -113
-19 22 -87 93 -152 158 l-119 117 -134 0 c-73 0 -147 3 -164 6 -23 5 -78 53
-207 181 -97 97 -173 178 -170 182 4 3 61 9 128 12 l122 5 -151 2 -150 2 201
-200z"/>
</g>
</svg>
