<?xml version="1.0" encoding="UTF-8" standalone="no"?>
<!DOCTYPE svg PUBLIC "-//W3C//DTD SVG 1.1//EN" "http://www.w3.org/Graphics/SVG/1.1/DTD/svg11.dtd">
<svg width="100%" height="100%" viewBox="0 0 800 800" version="1.1" xmlns="http://www.w3.org/2000/svg" xmlns:xlink="http://www.w3.org/1999/xlink" xml:space="preserve" xmlns:serif="http://www.serif.com/" style="fill-rule:evenodd;clip-rule:evenodd;stroke-linejoin:round;stroke-miterlimit:2;">
    <g transform="matrix(6.12323e-17,1,1,-6.12323e-17,-1.6198,-5.3802)">
        <path d="M800,800L800,773.584L673.503,639.551C673.503,639.551 561.73,478.231 434.765,278.246C267.144,14.221 170.196,-15.461 15.767,10.763C15.767,10.763 132.9,14.453 649.8,637.413C649.8,637.413 595.193,643.113 602.082,595.906C588.753,622.042 469.953,606.754 417.865,572.728C132.199,386.117 169.613,295.338 169.613,295.338C169.613,295.338 184.182,242.891 230.802,201.516C230.802,201.516 134.066,205.012 108.425,247.553C108.425,247.553 -0.55,141.492 22.76,37.18C22.76,37.18 -28.522,140.91 103.763,305.828C103.763,305.828 110.756,252.798 184.182,229.488L159.648,263.737C159.648,263.737 139.723,290.844 134.066,313.986C134.066,313.986 195.385,473.861 483.716,617.017C508.287,629.216 534.9,640.408 550.438,648.021C556.684,651.081 577.313,630.758 583.398,632.622C592.031,635.267 570.993,658.971 580.329,659.779C596.434,661.174 629.631,660.915 652.714,659.558L800,800Z"/>
    </g>
</svg>
