<?xml version="1.0" encoding="UTF-8" standalone="no"?><!DOCTYPE svg PUBLIC "-//W3C//DTD SVG 1.1//EN" "http://www.w3.org/Graphics/SVG/1.1/DTD/svg11.dtd"><svg width="100%" height="100%" viewBox="0 0 16 16" version="1.1" xmlns="http://www.w3.org/2000/svg" xmlns:xlink="http://www.w3.org/1999/xlink" xml:space="preserve" xmlns:serif="http://www.serif.com/" style="fill-rule:evenodd;clip-rule:evenodd;stroke-linejoin:round;stroke-miterlimit:2;"><path d="M16,16l-0,-1.065c-0,0 -1.815,-1.237 -2.427,-2.507c-0.309,-0.643 0.691,-1.341 -0.944,-4.298c-0.188,-0.338 -0.707,-1.224 -1.196,-1.718c-0,-0 0.237,0.765 0.259,1.133c0.021,0.36 -0.129,1.074 -0.129,1.074c-0,-0 -0.019,-1.845 -1.386,-3.239c-0.105,-0.107 0.26,2.504 0.145,2.403c-0,0 -0.333,-2.403 -0.935,-3.088c-1.357,-1.543 -3.324,-2.581 -4.443,-3.299l0.745,2.383c-0.062,-0.025 -1.145,-2.685 -1.944,-3.043c-0.995,-0.445 -2.21,-0.852 -3.745,-0.708c0,-0 0.156,0.926 1.214,2.873c1.864,3.432 4.804,3.69 5.597,3.896c-0,0 -1.015,0.032 -1.518,-0.033c-1.062,-0.137 -1.798,-0.578 -1.798,-0.578c1.263,1.648 2.242,3.294 4.689,4.854c0.967,0.617 2.795,0.262 2.795,0.262c-1.122,0.457 -2.024,0.278 -2.024,0.278c1.198,0.776 2.733,1.237 3.971,1.271c-0,-0 0.186,-0.191 3.074,3.149Z" style="fill:#fff;"/></svg>