<?xml version="1.0" encoding="UTF-8" standalone="no"?>
<!DOCTYPE svg PUBLIC "-//W3C//DTD SVG 1.1//EN" "http://www.w3.org/Graphics/SVG/1.1/DTD/svg11.dtd">
<svg width="100%" height="100%" viewBox="0 0 800 800" version="1.1" xmlns="http://www.w3.org/2000/svg" xmlns:xlink="http://www.w3.org/1999/xlink" xml:space="preserve" xmlns:serif="http://www.serif.com/" style="fill-rule:evenodd;clip-rule:evenodd;stroke-linejoin:round;stroke-miterlimit:2;">
    <path d="M800,800C800,800 246.005,-18.747 0,0C0,0 772.364,835.206 800,800Z"/>
    <g transform="matrix(1,0,0,1,-23.3101,1.16551)">
        <path d="M641.156,557.801C641.156,557.801 287.879,48.525 80.42,-1.483C80.42,-1.483 375.422,-31.035 641.156,557.801Z"/>
    </g>
    <g transform="matrix(1,0,0,1,18.648,-17.8932)">
        <path d="M617.846,640.809C617.846,640.809 103.73,138.523 -18.648,17.893C-18.648,17.893 -23.874,97.273 36.739,210.397C39.108,214.818 112.72,169.188 115.392,173.738C118.304,178.697 50.306,233.849 53.599,238.958C122.961,346.581 279.015,487.048 617.846,640.809Z"/>
    </g>
</svg>
